<mxfile host="app.diagrams.net" agent="Mozilla/5.0 (Windows NT 10.0; Win64; x64; rv:133.0) Gecko/20100101 Firefox/133.0" version="25.0.3">
  <diagram name="Seite-1" id="aof9V1836AsT8i5Dau2G">
    <mxGraphModel dx="2049" dy="1037" grid="1" gridSize="10" guides="1" tooltips="1" connect="1" arrows="1" fold="1" page="1" pageScale="1" pageWidth="827" pageHeight="1169" math="0" shadow="0">
      <root>
        <mxCell id="0" />
        <mxCell id="1" parent="0" />
        <mxCell id="u30mcsJb7srmViUrN2Fv-14" style="edgeStyle=orthogonalEdgeStyle;rounded=0;orthogonalLoop=1;jettySize=auto;html=1;exitX=1;exitY=0;exitDx=0;exitDy=0;entryX=0.375;entryY=0;entryDx=0;entryDy=0;entryPerimeter=0;" edge="1" parent="1" source="u30mcsJb7srmViUrN2Fv-10" target="u30mcsJb7srmViUrN2Fv-11">
          <mxGeometry relative="1" as="geometry" />
        </mxCell>
        <mxCell id="u30mcsJb7srmViUrN2Fv-10" value="GUI" style="rounded=1;whiteSpace=wrap;html=1;" vertex="1" parent="1">
          <mxGeometry x="170" y="200" width="120" height="60" as="geometry" />
        </mxCell>
        <mxCell id="u30mcsJb7srmViUrN2Fv-15" style="edgeStyle=orthogonalEdgeStyle;rounded=0;orthogonalLoop=1;jettySize=auto;html=1;exitX=0.5;exitY=0;exitDx=0;exitDy=0;entryX=0.892;entryY=0.017;entryDx=0;entryDy=0;entryPerimeter=0;" edge="1" parent="1" source="u30mcsJb7srmViUrN2Fv-11" target="u30mcsJb7srmViUrN2Fv-10">
          <mxGeometry relative="1" as="geometry">
            <Array as="points">
              <mxPoint x="410" y="220" />
              <mxPoint x="410" y="170" />
              <mxPoint x="277" y="170" />
            </Array>
          </mxGeometry>
        </mxCell>
        <mxCell id="u30mcsJb7srmViUrN2Fv-55" style="edgeStyle=orthogonalEdgeStyle;rounded=0;orthogonalLoop=1;jettySize=auto;html=1;exitX=0.25;exitY=1;exitDx=0;exitDy=0;entryX=0.5;entryY=0;entryDx=0;entryDy=0;" edge="1" parent="1" source="u30mcsJb7srmViUrN2Fv-11" target="u30mcsJb7srmViUrN2Fv-50">
          <mxGeometry relative="1" as="geometry">
            <Array as="points">
              <mxPoint x="370" y="280" />
            </Array>
          </mxGeometry>
        </mxCell>
        <mxCell id="u30mcsJb7srmViUrN2Fv-60" value="&lt;div&gt;File path,&amp;nbsp;&lt;/div&gt;&lt;div&gt;input&lt;/div&gt;" style="edgeLabel;html=1;align=center;verticalAlign=middle;resizable=0;points=[];" vertex="1" connectable="0" parent="u30mcsJb7srmViUrN2Fv-55">
          <mxGeometry x="0.129" y="-2" relative="1" as="geometry">
            <mxPoint as="offset" />
          </mxGeometry>
        </mxCell>
        <mxCell id="u30mcsJb7srmViUrN2Fv-11" value="Gui Helper" style="rounded=1;whiteSpace=wrap;html=1;" vertex="1" parent="1">
          <mxGeometry x="354" y="220" width="120" height="60" as="geometry" />
        </mxCell>
        <mxCell id="u30mcsJb7srmViUrN2Fv-24" style="edgeStyle=orthogonalEdgeStyle;rounded=0;orthogonalLoop=1;jettySize=auto;html=1;exitX=0.75;exitY=1;exitDx=0;exitDy=0;entryX=0.75;entryY=0;entryDx=0;entryDy=0;" edge="1" parent="1" source="u30mcsJb7srmViUrN2Fv-12" target="u30mcsJb7srmViUrN2Fv-21">
          <mxGeometry relative="1" as="geometry" />
        </mxCell>
        <mxCell id="u30mcsJb7srmViUrN2Fv-12" value="Automaton Handler" style="rounded=1;whiteSpace=wrap;html=1;" vertex="1" parent="1">
          <mxGeometry x="570" y="220" width="120" height="60" as="geometry" />
        </mxCell>
        <mxCell id="u30mcsJb7srmViUrN2Fv-18" style="edgeStyle=orthogonalEdgeStyle;rounded=0;orthogonalLoop=1;jettySize=auto;html=1;exitX=0.75;exitY=1;exitDx=0;exitDy=0;entryX=0;entryY=0.5;entryDx=0;entryDy=0;" edge="1" parent="1" source="u30mcsJb7srmViUrN2Fv-13" target="u30mcsJb7srmViUrN2Fv-10">
          <mxGeometry relative="1" as="geometry" />
        </mxCell>
        <mxCell id="u30mcsJb7srmViUrN2Fv-13" value="Main App" style="rounded=1;whiteSpace=wrap;html=1;" vertex="1" parent="1">
          <mxGeometry x="30" y="40" width="120" height="60" as="geometry" />
        </mxCell>
        <mxCell id="u30mcsJb7srmViUrN2Fv-16" style="edgeStyle=orthogonalEdgeStyle;rounded=0;orthogonalLoop=1;jettySize=auto;html=1;exitX=0.5;exitY=0;exitDx=0;exitDy=0;entryX=0.425;entryY=0;entryDx=0;entryDy=0;entryPerimeter=0;" edge="1" parent="1" source="u30mcsJb7srmViUrN2Fv-10" target="u30mcsJb7srmViUrN2Fv-12">
          <mxGeometry relative="1" as="geometry">
            <Array as="points">
              <mxPoint x="240" y="200" />
              <mxPoint x="240" y="140" />
              <mxPoint x="621" y="140" />
            </Array>
          </mxGeometry>
        </mxCell>
        <mxCell id="u30mcsJb7srmViUrN2Fv-17" style="edgeStyle=orthogonalEdgeStyle;rounded=0;orthogonalLoop=1;jettySize=auto;html=1;exitX=0.5;exitY=0;exitDx=0;exitDy=0;entryX=0.5;entryY=0;entryDx=0;entryDy=0;" edge="1" parent="1" source="u30mcsJb7srmViUrN2Fv-12" target="u30mcsJb7srmViUrN2Fv-10">
          <mxGeometry relative="1" as="geometry">
            <mxPoint x="220" y="190" as="targetPoint" />
            <Array as="points">
              <mxPoint x="630" y="130" />
              <mxPoint x="230" y="130" />
            </Array>
          </mxGeometry>
        </mxCell>
        <mxCell id="u30mcsJb7srmViUrN2Fv-19" style="edgeStyle=orthogonalEdgeStyle;rounded=0;orthogonalLoop=1;jettySize=auto;html=1;entryX=0.5;entryY=0;entryDx=0;entryDy=0;" edge="1" parent="1" source="u30mcsJb7srmViUrN2Fv-10" target="u30mcsJb7srmViUrN2Fv-10">
          <mxGeometry relative="1" as="geometry">
            <Array as="points">
              <mxPoint x="230" y="230" />
              <mxPoint x="230" y="230" />
            </Array>
          </mxGeometry>
        </mxCell>
        <mxCell id="u30mcsJb7srmViUrN2Fv-20" value="" style="endArrow=none;dashed=1;html=1;rounded=0;" edge="1" parent="1">
          <mxGeometry width="50" height="50" relative="1" as="geometry">
            <mxPoint x="4" y="380" as="sourcePoint" />
            <mxPoint x="824" y="380" as="targetPoint" />
          </mxGeometry>
        </mxCell>
        <mxCell id="u30mcsJb7srmViUrN2Fv-23" style="edgeStyle=orthogonalEdgeStyle;rounded=0;orthogonalLoop=1;jettySize=auto;html=1;exitX=0.5;exitY=0;exitDx=0;exitDy=0;entryX=0.5;entryY=1;entryDx=0;entryDy=0;" edge="1" parent="1" source="u30mcsJb7srmViUrN2Fv-21" target="u30mcsJb7srmViUrN2Fv-12">
          <mxGeometry relative="1" as="geometry" />
        </mxCell>
        <mxCell id="u30mcsJb7srmViUrN2Fv-21" value="Bridge" style="rounded=1;whiteSpace=wrap;html=1;" vertex="1" parent="1">
          <mxGeometry x="570" y="350" width="120" height="60" as="geometry" />
        </mxCell>
        <mxCell id="u30mcsJb7srmViUrN2Fv-29" value="" style="shape=table;startSize=0;container=1;collapsible=0;childLayout=tableLayout;fontSize=16;" vertex="1" parent="1">
          <mxGeometry x="230" y="620" width="430" height="40" as="geometry" />
        </mxCell>
        <mxCell id="u30mcsJb7srmViUrN2Fv-30" value="" style="shape=tableRow;horizontal=0;startSize=0;swimlaneHead=0;swimlaneBody=0;strokeColor=inherit;top=0;left=0;bottom=0;right=0;collapsible=0;dropTarget=0;fillColor=none;points=[[0,0.5],[1,0.5]];portConstraint=eastwest;fontSize=16;" vertex="1" parent="u30mcsJb7srmViUrN2Fv-29">
          <mxGeometry width="430" height="40" as="geometry" />
        </mxCell>
        <mxCell id="u30mcsJb7srmViUrN2Fv-31" value="&lt;b&gt;&lt;font style=&quot;font-size: 12px;&quot;&gt;AutomatonBridge&lt;/font&gt;&lt;/b&gt;" style="shape=partialRectangle;html=1;whiteSpace=wrap;connectable=0;overflow=hidden;top=0;left=0;bottom=0;right=0;pointerEvents=1;fontSize=16;" vertex="1" parent="u30mcsJb7srmViUrN2Fv-30">
          <mxGeometry width="144" height="40" as="geometry">
            <mxRectangle width="144" height="40" as="alternateBounds" />
          </mxGeometry>
        </mxCell>
        <mxCell id="u30mcsJb7srmViUrN2Fv-32" value="DFA" style="shape=partialRectangle;html=1;whiteSpace=wrap;connectable=0;strokeColor=#666666;overflow=hidden;fillColor=#f5f5f5;top=0;left=0;bottom=0;right=0;pointerEvents=1;fontSize=16;fontColor=#333333;" vertex="1" parent="u30mcsJb7srmViUrN2Fv-30">
          <mxGeometry x="144" width="142" height="40" as="geometry">
            <mxRectangle width="142" height="40" as="alternateBounds" />
          </mxGeometry>
        </mxCell>
        <mxCell id="u30mcsJb7srmViUrN2Fv-33" value="TM" style="shape=partialRectangle;html=1;whiteSpace=wrap;connectable=0;strokeColor=#666666;overflow=hidden;fillColor=#f5f5f5;top=0;left=0;bottom=0;right=0;pointerEvents=1;fontSize=16;fontColor=#333333;" vertex="1" parent="u30mcsJb7srmViUrN2Fv-30">
          <mxGeometry x="286" width="144" height="40" as="geometry">
            <mxRectangle width="144" height="40" as="alternateBounds" />
          </mxGeometry>
        </mxCell>
        <mxCell id="u30mcsJb7srmViUrN2Fv-48" style="edgeStyle=orthogonalEdgeStyle;rounded=0;orthogonalLoop=1;jettySize=auto;html=1;exitX=0.683;exitY=1.067;exitDx=0;exitDy=0;exitPerimeter=0;entryX=0.808;entryY=1.017;entryDx=0;entryDy=0;entryPerimeter=0;" edge="1" parent="1" source="u30mcsJb7srmViUrN2Fv-21" target="u30mcsJb7srmViUrN2Fv-50">
          <mxGeometry relative="1" as="geometry">
            <mxPoint x="410" y="453" as="targetPoint" />
            <Array as="points">
              <mxPoint x="650" y="414" />
              <mxPoint x="650" y="510" />
              <mxPoint x="407" y="510" />
            </Array>
          </mxGeometry>
        </mxCell>
        <mxCell id="u30mcsJb7srmViUrN2Fv-49" style="edgeStyle=orthogonalEdgeStyle;rounded=0;orthogonalLoop=1;jettySize=auto;html=1;exitX=0.9;exitY=1.033;exitDx=0;exitDy=0;entryX=0.583;entryY=1.067;entryDx=0;entryDy=0;entryPerimeter=0;exitPerimeter=0;" edge="1" parent="1" source="u30mcsJb7srmViUrN2Fv-50" target="u30mcsJb7srmViUrN2Fv-21">
          <mxGeometry relative="1" as="geometry">
            <Array as="points">
              <mxPoint x="420" y="452" />
              <mxPoint x="420" y="500" />
              <mxPoint x="640" y="500" />
            </Array>
          </mxGeometry>
        </mxCell>
        <mxCell id="u30mcsJb7srmViUrN2Fv-64" style="edgeStyle=orthogonalEdgeStyle;rounded=0;orthogonalLoop=1;jettySize=auto;html=1;exitX=0.25;exitY=1;exitDx=0;exitDy=0;entryX=0.256;entryY=0.025;entryDx=0;entryDy=0;entryPerimeter=0;" edge="1" parent="1" source="u30mcsJb7srmViUrN2Fv-50" target="u30mcsJb7srmViUrN2Fv-30">
          <mxGeometry relative="1" as="geometry">
            <mxPoint x="340" y="610" as="targetPoint" />
          </mxGeometry>
        </mxCell>
        <mxCell id="u30mcsJb7srmViUrN2Fv-66" style="edgeStyle=orthogonalEdgeStyle;rounded=0;orthogonalLoop=1;jettySize=auto;html=1;exitX=1;exitY=0.25;exitDx=0;exitDy=0;" edge="1" parent="1" source="u30mcsJb7srmViUrN2Fv-50" target="u30mcsJb7srmViUrN2Fv-21">
          <mxGeometry relative="1" as="geometry">
            <Array as="points">
              <mxPoint x="500" y="405" />
              <mxPoint x="500" y="390" />
            </Array>
          </mxGeometry>
        </mxCell>
        <mxCell id="u30mcsJb7srmViUrN2Fv-67" value="Init" style="edgeLabel;html=1;align=center;verticalAlign=middle;resizable=0;points=[];" vertex="1" connectable="0" parent="u30mcsJb7srmViUrN2Fv-66">
          <mxGeometry x="0.0065" relative="1" as="geometry">
            <mxPoint as="offset" />
          </mxGeometry>
        </mxCell>
        <mxCell id="u30mcsJb7srmViUrN2Fv-50" value="SImulation Loader" style="rounded=1;whiteSpace=wrap;html=1;" vertex="1" parent="1">
          <mxGeometry x="310" y="390" width="120" height="60" as="geometry" />
        </mxCell>
        <mxCell id="u30mcsJb7srmViUrN2Fv-51" style="edgeStyle=orthogonalEdgeStyle;rounded=0;orthogonalLoop=1;jettySize=auto;html=1;exitX=0;exitY=1;exitDx=0;exitDy=0;entryX=0.107;entryY=0.025;entryDx=0;entryDy=0;entryPerimeter=0;" edge="1" parent="1" source="u30mcsJb7srmViUrN2Fv-50" target="u30mcsJb7srmViUrN2Fv-30">
          <mxGeometry relative="1" as="geometry">
            <Array as="points">
              <mxPoint x="276" y="450" />
            </Array>
          </mxGeometry>
        </mxCell>
        <mxCell id="u30mcsJb7srmViUrN2Fv-54" value="Init" style="edgeLabel;html=1;align=center;verticalAlign=middle;resizable=0;points=[];" vertex="1" connectable="0" parent="u30mcsJb7srmViUrN2Fv-51">
          <mxGeometry x="-0.2585" y="5" relative="1" as="geometry">
            <mxPoint as="offset" />
          </mxGeometry>
        </mxCell>
        <mxCell id="u30mcsJb7srmViUrN2Fv-56" style="edgeStyle=orthogonalEdgeStyle;rounded=0;orthogonalLoop=1;jettySize=auto;html=1;exitX=0.75;exitY=0;exitDx=0;exitDy=0;" edge="1" parent="1" source="u30mcsJb7srmViUrN2Fv-50">
          <mxGeometry relative="1" as="geometry">
            <mxPoint x="410" y="280" as="targetPoint" />
            <Array as="points">
              <mxPoint x="410" y="390" />
            </Array>
          </mxGeometry>
        </mxCell>
        <mxCell id="u30mcsJb7srmViUrN2Fv-58" value="Success" style="edgeLabel;html=1;align=center;verticalAlign=middle;resizable=0;points=[];" vertex="1" connectable="0" parent="u30mcsJb7srmViUrN2Fv-56">
          <mxGeometry x="-0.0528" y="-4" relative="1" as="geometry">
            <mxPoint as="offset" />
          </mxGeometry>
        </mxCell>
        <mxCell id="u30mcsJb7srmViUrN2Fv-61" value="" style="shape=flexArrow;endArrow=classic;html=1;rounded=0;entryX=1;entryY=0.5;entryDx=0;entryDy=0;endWidth=32;endSize=6;" edge="1" parent="1" target="u30mcsJb7srmViUrN2Fv-13">
          <mxGeometry width="50" height="50" relative="1" as="geometry">
            <mxPoint x="240" y="70" as="sourcePoint" />
            <mxPoint x="404" y="70" as="targetPoint" />
          </mxGeometry>
        </mxCell>
        <mxCell id="u30mcsJb7srmViUrN2Fv-65" style="edgeStyle=orthogonalEdgeStyle;rounded=0;orthogonalLoop=1;jettySize=auto;html=1;exitX=0.219;exitY=-0.003;exitDx=0;exitDy=0;entryX=0.117;entryY=1.017;entryDx=0;entryDy=0;entryPerimeter=0;exitPerimeter=0;" edge="1" parent="1" source="u30mcsJb7srmViUrN2Fv-30" target="u30mcsJb7srmViUrN2Fv-50">
          <mxGeometry relative="1" as="geometry">
            <Array as="points">
              <mxPoint x="324" y="610" />
              <mxPoint x="324" y="610" />
            </Array>
          </mxGeometry>
        </mxCell>
      </root>
    </mxGraphModel>
  </diagram>
</mxfile>
